<?xml version="1.0" standalone="no"?>
<!DOCTYPE svg PUBLIC "-//W3C//DTD SVG 20010904//EN"
 "http://www.w3.org/TR/2001/REC-SVG-20010904/DTD/svg10.dtd">
<svg version="1.0" xmlns="http://www.w3.org/2000/svg"
 width="700.000000pt" height="700.000000pt" viewBox="0 0 700.000000 700.000000"
 preserveAspectRatio="xMidYMid meet">
<metadata>
Created by potrace 1.11, written by Peter Selinger 2001-2013
</metadata>
<g transform="translate(0.000000,700.000000) scale(0.100000,-0.100000)"
fill="#000000" stroke="none">
<path d="M235 6982 c-95 -33 -160 -91 -203 -182 -23 -46 -27 -68 -26 -140 0
-73 4 -93 29 -143 57 -114 160 -179 306 -192 128 -12 192 -21 309 -41 47 -8
99 -17 115 -20 56 -9 329 -82 420 -112 569 -187 1093 -514 1517 -948 108 -111
227 -248 295 -341 26 -34 49 -60 53 -58 3 2 26 37 49 77 64 108 189 292 274
407 l76 100 -75 88 c-102 120 -376 390 -504 495 -335 278 -660 480 -1070 666
-305 139 -814 286 -1130 326 -25 3 -81 11 -125 16 -162 21 -256 22 -310 2z"/>
<path d="M6579 6996 c-2 -2 -38 -7 -79 -11 -41 -4 -82 -8 -90 -10 -8 -1 -40
-6 -70 -10 -30 -4 -64 -9 -75 -12 -11 -2 -34 -6 -52 -8 -18 -3 -84 -16 -148
-30 -524 -113 -998 -305 -1443 -584 -331 -207 -664 -485 -914 -763 -40 -45
-84 -93 -97 -107 -13 -14 -35 -42 -50 -61 -14 -19 -32 -41 -39 -48 -7 -8 -25
-30 -40 -50 -15 -21 -32 -42 -38 -48 -28 -31 -188 -269 -262 -391 -153 -254
-315 -607 -406 -888 -34 -105 -93 -322 -103 -375 -2 -14 -8 -41 -13 -60 -5
-19 -12 -51 -15 -70 -7 -41 -16 -96 -21 -125 -57 -311 -74 -826 -39 -1135 3
-19 7 -58 10 -86 3 -29 7 -61 9 -71 3 -11 7 -44 11 -73 4 -29 9 -62 11 -74 2
-12 7 -34 10 -51 31 -172 89 -399 149 -580 25 -76 49 -143 53 -151 14 -25 145
255 221 470 32 90 76 240 84 286 3 14 10 43 15 65 11 40 40 202 47 260 19 155
25 250 30 462 2 111 7 228 10 260 13 127 15 151 25 223 6 41 15 98 20 125 5
28 12 61 14 75 49 273 170 627 311 911 241 484 545 865 990 1238 162 136 458
328 670 434 377 189 820 327 1195 372 30 4 66 8 80 10 14 2 61 7 105 11 98 8
160 30 220 79 152 125 163 355 24 494 -65 65 -136 94 -235 97 -45 2 -83 2 -85
0z"/>
<path d="M263 5800 c-115 -24 -216 -124 -247 -244 -42 -159 42 -330 191 -392
21 -9 92 -25 158 -35 173 -26 179 -27 300 -59 439 -116 826 -337 1151 -657
185 -183 381 -448 474 -643 4 -8 17 -34 29 -56 40 -78 118 -289 151 -409 36
-128 50 -157 51 -109 0 16 2 37 4 46 2 9 6 34 9 55 30 215 92 477 164 699 22
67 52 151 66 188 l27 66 -74 113 c-128 192 -245 336 -422 512 -324 324 -640
535 -1080 720 -104 44 -419 141 -520 160 -246 47 -364 60 -432 45z"/>
<path d="M6580 5802 c-535 -68 -1054 -271 -1483 -579 -48 -34 -93 -67 -100
-73 -352 -287 -566 -526 -785 -880 -158 -254 -313 -628 -367 -880 -2 -8 -12
-55 -23 -105 -11 -49 -23 -108 -26 -130 -4 -22 -9 -53 -11 -70 -3 -16 -7 -43
-9 -58 -26 -161 -26 -682 -1 -777 2 -8 7 -40 10 -70 8 -68 39 -231 61 -313 9
-34 17 -66 19 -72 14 -62 75 -246 115 -345 45 -114 164 -350 172 -342 14 14
94 255 132 398 98 363 142 688 151 1104 4 185 8 249 20 330 3 19 8 53 11 75
23 162 99 438 154 560 164 364 308 580 550 824 72 73 164 155 226 203 16 12
31 25 34 28 11 13 141 100 230 155 96 59 289 154 390 192 30 12 64 25 75 29
11 4 22 8 25 9 3 0 28 8 55 18 77 25 191 54 290 72 50 10 97 18 105 20 8 2 35
6 60 9 112 15 152 30 211 77 155 122 168 358 28 496 -84 83 -183 113 -319 95z"/>
<path d="M3260 2120 c-1 -14 -3 -32 -5 -40 -2 -8 -12 -61 -24 -117 -26 -127
-82 -319 -128 -443 -36 -96 -46 -120 -103 -245 -17 -38 -30 -70 -29 -70 1 0
-13 -24 -30 -53 -17 -29 -31 -55 -31 -58 0 -3 -9 -18 -19 -33 l-19 -27 49
-114 c75 -175 167 -353 267 -520 46 -76 201 -311 212 -320 3 -3 16 -20 29 -37
12 -18 26 -33 31 -33 12 0 159 201 232 317 34 54 71 114 83 133 13 19 35 58
50 85 l27 50 -72 119 c-145 239 -257 474 -344 726 -41 116 -106 346 -120 422
-44 243 -54 286 -56 258z"/>
</g>
</svg>
