<?xml version="1.0" standalone="no"?>
<!DOCTYPE svg PUBLIC "-//W3C//DTD SVG 20010904//EN"
 "http://www.w3.org/TR/2001/REC-SVG-20010904/DTD/svg10.dtd">
<svg version="1.0" xmlns="http://www.w3.org/2000/svg"
 width="520.000000pt" height="520.000000pt" viewBox="0 0 520.000000 520.000000"
 preserveAspectRatio="xMidYMid meet">
<metadata>
Created by potrace 1.11, written by Peter Selinger 2001-2013
</metadata>
<g transform="translate(0.000000,520.000000) scale(0.100000,-0.100000)"
fill="#000000" stroke="none">
<path d="M216 5193 c-28 -8 -91 -48 -117 -75 -67 -70 -82 -198 -33 -287 46
-86 110 -122 234 -136 152 -16 303 -43 423 -74 80 -21 279 -85 312 -101 11 -5
49 -21 85 -36 278 -113 607 -335 842 -567 111 -110 298 -328 298 -348 0 -21
18 2 65 83 46 77 104 164 199 295 21 29 36 57 34 62 -1 6 -46 59 -99 118 -333
373 -765 673 -1239 861 -212 84 -522 166 -715 188 -27 4 -52 8 -55 9 -11 7
-216 14 -234 8z"/>
<path d="M4827 5194 c-1 -1 -27 -5 -57 -8 -30 -4 -66 -8 -80 -11 -14 -2 -41
-6 -60 -9 -19 -3 -60 -10 -90 -16 -30 -6 -66 -13 -80 -16 -63 -12 -255 -66
-350 -99 -684 -238 -1233 -662 -1654 -1278 -36 -53 -66 -99 -66 -102 0 -3 -15
-29 -33 -58 -145 -231 -302 -632 -368 -942 -7 -33 -14 -64 -15 -70 -59 -257
-76 -767 -34 -1040 5 -33 12 -76 14 -95 7 -52 54 -279 66 -320 6 -19 13 -43
15 -54 12 -52 80 -246 86 -246 12 0 100 191 147 320 31 86 83 277 98 360 4 25
8 47 9 50 1 3 5 34 10 70 4 36 9 76 11 90 2 14 6 95 9 180 14 427 44 622 140
917 52 157 64 186 149 361 268 548 753 1024 1294 1268 42 20 95 44 117 54 189
85 520 167 790 195 90 9 130 22 176 58 155 118 109 378 -78 433 -39 11 -155
17 -166 8z"/>
<path d="M235 4310 c-186 -41 -263 -264 -140 -407 41 -48 100 -79 170 -88 419
-54 800 -241 1098 -538 137 -136 246 -283 337 -452 68 -127 146 -340 167 -455
7 -41 10 -34 22 52 28 195 75 391 147 606 l45 134 -67 101 c-233 351 -563 642
-934 823 -124 61 -249 109 -385 149 -196 58 -392 90 -460 75z"/>
<path d="M4840 4309 c-102 -16 -123 -20 -207 -39 -48 -11 -95 -22 -104 -24
-161 -39 -426 -153 -594 -256 -76 -46 -187 -120 -195 -129 -3 -3 -34 -28 -70
-56 -132 -101 -343 -326 -451 -480 -105 -149 -223 -371 -279 -520 -25 -68 -78
-237 -84 -269 -2 -12 -9 -41 -15 -66 -12 -53 -19 -91 -27 -140 -3 -19 -7 -46
-10 -60 -23 -132 -23 -499 0 -625 2 -11 6 -41 10 -66 31 -211 102 -439 208
-662 34 -72 54 -103 60 -95 6 11 75 215 84 253 8 32 14 57 18 72 2 10 11 45
19 78 9 33 18 76 21 95 3 19 8 46 11 60 13 66 25 141 31 205 3 39 8 84 10 100
2 17 6 107 9 200 5 171 12 280 21 332 51 306 146 551 302 783 223 330 556 589
927 720 92 32 255 74 335 85 25 3 61 9 80 12 159 24 256 188 199 337 -45 120
-161 178 -309 155z"/>
<path d="M2416 1543 c-27 -202 -109 -451 -227 -685 l-49 -97 19 -43 c96 -225
192 -402 314 -583 44 -65 45 -66 79 -108 l23 -28 66 93 c88 123 163 242 205
324 16 30 15 32 -28 100 -100 157 -192 350 -259 544 -36 104 -84 275 -95 340
-18 99 -35 184 -38 187 -2 2 -6 -18 -10 -44z"/>
</g>
</svg>
